<svg id="Layer_1" data-name="Layer 1" xmlns="http://www.w3.org/2000/svg" viewBox="0 0 552 550.08">
  <title>logo-DS</title>
  <g>
    <path d="M326,109v33S79,119,79,368c0,266,247,252,247,252v39S60,639,60,368,326,109,326,109Z" transform="translate(-60 -108.92)" style="fill: #ddd"/>
    <rect x="203" y="25.08" width="31" height="493" style="fill: #ddd"/>
    <g>
      <path d="M603.69,279H612C561.06,99.82,350,109,350,109v33S542.66,140.08,603.69,279Z" transform="translate(-60 -108.92)" style="fill: #ddd"/>
      <path d="M600,425C563,613,350,620,350,620v39s227.47-17.11,261.7-234Z" transform="translate(-60 -108.92)" style="fill: #ddd"/>
    </g>
    <rect x="384" y="31" width="8" height="520" transform="translate(-124.14 357.56) rotate(-58.08)" style="fill: #ddd"/>
    <g>
      <polygon points="341.24 186.79 341.24 25.08 313.26 25.08 313.26 176.2 341.24 186.79" style="fill: #ddd"/>
      <polygon points="313.26 298.49 313.26 518.08 341.24 518.08 341.24 309.35 313.26 298.49" style="fill: #ddd"/>
    </g>
  </g>
</svg>
